<?xml version="1.0" encoding="UTF-8" standalone="no"?>
<svg
   xmlns:dc="http://purl.org/dc/elements/1.1/"
   xmlns:cc="http://creativecommons.org/ns#"
   xmlns:rdf="http://www.w3.org/1999/02/22-rdf-syntax-ns#"
   xmlns:svg="http://www.w3.org/2000/svg"
   xmlns="http://www.w3.org/2000/svg"
   xmlns:sodipodi="http://sodipodi.sourceforge.net/DTD/sodipodi-0.dtd"
   xmlns:inkscape="http://www.inkscape.org/namespaces/inkscape"
   version="1.1"
   id="svg2"
   xml:space="preserve"
   width="149.74133"
   height="149.74133"
   viewBox="0 0 149.74133 149.74133"
   sodipodi:docname="Brunotti-logo.ai"><metadata
     id="metadata8"><rdf:RDF><cc:Work
         rdf:about=""><dc:format>image/svg+xml</dc:format><dc:type
           rdf:resource="http://purl.org/dc/dcmitype/StillImage" /></cc:Work></rdf:RDF></metadata><defs
     id="defs6"><clipPath
       clipPathUnits="userSpaceOnUse"
       id="clipPath20"><path
         d="M 0,112.306 H 112.306 V 0 H 0 Z"
         id="path18" /></clipPath></defs><sodipodi:namedview
     pagecolor="#ffffff"
     bordercolor="#666666"
     borderopacity="1"
     objecttolerance="10"
     gridtolerance="10"
     guidetolerance="10"
     inkscape:pageopacity="0"
     inkscape:pageshadow="2"
     inkscape:window-width="640"
     inkscape:window-height="480"
     id="namedview4" /><g
     id="g10"
     inkscape:groupmode="layer"
     inkscape:label="Brunotti-logo"
     transform="matrix(1.3333333,0,0,-1.3333333,0,149.74133)"><path
       d="M 0,0 H 112.307 V 112.307 H 0 Z"
       style="fill:#000000;fill-opacity:1;fill-rule:nonzero;stroke:none"
       id="path12" /><g
       id="g14"><g
         id="g16"
         clip-path="url(#clipPath20)"><g
           id="g22"
           transform="translate(63.5693,72.6465)"><path
             d="m 0,0 h -21.843 l -8.683,15.04 h 39.21 z m 22.883,23.238 h -60.426 l -0.01,-0.009 c -0.019,0 -0.049,0.009 -0.069,0.009 -2.268,0 -4.093,-1.834 -4.093,-4.093 0,-0.759 0.237,-1.505 0.552,-2.071 0.237,-0.41 30.234,-52.375 30.234,-52.375 l 0.008,-0.012 h 9.466 v 0 l -0.007,0.012 -15.648,27.103 H 4.733 L -3.822,-23.016 0.911,-31.214 18.933,0 H 9.466 Z"
             style="fill:#ffffff;fill-opacity:1;fill-rule:nonzero;stroke:none"
             id="path24" /></g><path
           d="M 98.37,16.515 H 95.838 V 29.671 H 98.37 Z"
           style="fill:#ffffff;fill-opacity:1;fill-rule:nonzero;stroke:none"
           id="path26" /><g
           id="g28"
           transform="translate(94.4663,29.6709)"><path
             d="m 0,0 v -2.048 h -3.849 v -11.108 h -2.532 v 11.108 h -5.294 v -11.108 h -2.533 v 11.108 h -3.848 V 0 Z"
             style="fill:#ffffff;fill-opacity:1;fill-rule:nonzero;stroke:none"
             id="path30" /></g><g
           id="g32"
           transform="translate(73.8867,23.0971)"><path
             d="m 0,0 c 0,2.423 -2.002,4.407 -4.453,4.416 -2.45,0 -4.452,-1.984 -4.452,-4.407 -0.009,-2.441 1.993,-4.425 4.444,-4.425 2.449,0 4.452,1.975 4.461,4.416 M -1.911,6.309 C 1.6,4.919 3.31,0.951 1.901,-2.523 1.38,-3.812 0.503,-4.891 -0.667,-5.65 c -1.134,-0.749 -2.441,-1.152 -3.804,-1.152 -0.868,0 -1.718,0.174 -2.541,0.494 -3.502,1.399 -5.212,5.357 -3.804,8.831 0.522,1.281 1.399,2.369 2.569,3.137 1.134,0.731 2.441,1.133 3.804,1.133 0.868,0 1.718,-0.165 2.532,-0.484"
             style="fill:#ffffff;fill-opacity:1;fill-rule:nonzero;stroke:none"
             id="path34" /></g><g
           id="g36"
           transform="translate(58.5273,21.0039)"><path
             d="M 0,0 V 8.667 H 2.532 V -4.489 H 0 -0.009 L -5.852,4.169 V -4.489 H -5.86 -8.393 V 8.667 h 2.533 0.008 z"
             style="fill:#ffffff;fill-opacity:1;fill-rule:nonzero;stroke:none"
             id="path38" /></g><g
           id="g40"
           transform="translate(48.2329,29.6709)"><path
             d="m 0,0 -0.009,-13.12 v -0.027 -0.009 l -4.59,0.009 h -0.027 v -0.009 l -0.009,0.009 -0.494,-0.009 c -0.375,0 -0.841,0.046 -1.289,0.1 -0.156,0.028 -0.293,0.056 -0.439,0.083 -0.265,0.045 -0.521,0.1 -0.731,0.164 -0.641,0.21 -1.207,0.521 -1.692,0.924 -0.21,0.182 -0.42,0.375 -0.585,0.585 -0.192,0.219 -0.347,0.448 -0.494,0.695 -0.228,0.393 -0.393,0.85 -0.475,1.334 -0.073,0.412 -0.119,1.042 -0.119,1.335 v 0.878 L -10.944,0 h 2.524 v -6.994 c 0,-0.302 0.009,-1.335 0.064,-1.728 0.045,-0.347 0.21,-0.86 0.375,-1.088 l 0.008,-0.009 v -0.009 c 0.549,-0.814 1.518,-1.271 3.009,-1.271 h 2.331 0.082 L -2.542,0 h 2.523 0.01 z"
             style="fill:#ffffff;fill-opacity:1;fill-rule:nonzero;stroke:none"
             id="path42" /></g><g
           id="g44"
           transform="translate(33.6777,26.0415)"><path
             d="m 0,0 c 0,0.256 -0.082,0.548 -0.238,0.786 -0.155,0.219 -0.374,0.402 -0.639,0.53 -0.302,0.138 -0.485,0.192 -0.952,0.238 -0.465,0.037 -0.859,0.028 -1.252,0.028 h -2.002 v -3.118 h 2.057 c 0.393,0 0.796,0.009 1.197,0.036 0.329,0.019 0.65,0.101 0.952,0.229 0.265,0.137 0.484,0.311 0.639,0.54 C -0.082,-0.503 0,-0.256 0,0 m -1.399,-3.475 5.02,-6.052 H 3.136 0.64 l -5.732,6.912 V -9.527 H -7.625 V -9.518 3.62 3.629 h 0.009 4.562 c 0,0 0.229,0 0.522,-0.009 C -2.185,3.611 -1.755,3.583 -1.454,3.529 -0.96,3.456 -0.475,3.328 -0.027,3.154 0.43,2.971 0.851,2.743 1.207,2.45 1.582,2.148 1.883,1.773 2.112,1.334 2.276,1.042 2.341,0.804 2.386,0.631 2.423,0.42 2.441,0.219 2.45,0.018 2.441,-0.183 2.423,-0.384 2.386,-0.594 2.341,-0.759 2.276,-1.006 2.112,-1.298 1.883,-1.737 1.582,-2.112 1.207,-2.405 0.851,-2.697 0.43,-2.935 -0.027,-3.118 -0.457,-3.282 -0.923,-3.401 -1.399,-3.475"
             style="fill:#ffffff;fill-opacity:1;fill-rule:nonzero;stroke:none"
             id="path46" /></g><g
           id="g48"
           transform="translate(21.5639,26.0415)"><path
             d="m 0,0 c 0,0.256 -0.082,0.548 -0.238,0.786 -0.155,0.219 -0.374,0.402 -0.649,0.53 -0.301,0.138 -0.484,0.192 -0.95,0.238 -0.467,0.037 -1.134,0.028 -1.527,0.028 h -1.728 v -3.118 h 2.057 c 0.393,0 0.795,0.009 1.198,0.036 0.329,0.019 0.649,0.101 0.95,0.229 0.275,0.137 0.494,0.311 0.649,0.54 C -0.082,-0.503 0,-0.256 0,0 m 0.786,-5.559 c 0,0.32 -0.1,0.686 -0.274,0.978 -0.183,0.275 -0.429,0.503 -0.75,0.668 -0.347,0.164 -0.722,0.265 -1.097,0.283 -0.466,0.037 -0.932,0.046 -1.38,0.046 H -5.092 V -7.47 h 2.377 c 0.448,0 0.914,0.01 1.38,0.037 0.375,0.027 0.75,0.128 1.097,0.292 0.321,0.165 0.567,0.393 0.75,0.668 0.174,0.292 0.274,0.594 0.274,0.914 m 2.533,0.082 V -5.678 C 3.31,-5.979 3.264,-6.272 3.172,-6.564 3.099,-6.83 2.99,-7.095 2.843,-7.351 2.523,-7.954 2.021,-8.439 1.372,-8.777 1.051,-8.941 0.731,-9.079 0.42,-9.179 0.091,-9.289 -0.229,-9.362 -0.558,-9.408 -0.887,-9.472 -1.216,-9.5 -1.545,-9.508 -1.874,-9.518 -2.212,-9.527 -2.569,-9.527 l -5.056,0.009 V 3.629 h 0.009 4.562 c 0,0 1.043,0 1.6,-0.1 C -0.96,3.456 -0.476,3.328 -0.027,3.154 0.43,2.971 0.85,2.743 1.207,2.45 1.582,2.148 1.883,1.773 2.112,1.334 2.276,1.042 2.34,0.804 2.386,0.631 2.432,0.375 2.459,0.137 2.459,-0.11 2.469,-0.412 2.423,-0.695 2.35,-0.96 2.332,-0.997 2.322,-1.033 2.304,-1.07 2.222,-1.317 2.112,-1.545 1.966,-1.747 1.81,-1.957 1.609,-2.167 1.39,-2.368 1.865,-2.643 2.268,-2.972 2.578,-3.374 2.816,-3.685 2.999,-4.014 3.118,-4.361 3.182,-4.544 3.228,-4.727 3.255,-4.91 3.292,-5.093 3.31,-5.285 3.319,-5.477"
             style="fill:#ffffff;fill-opacity:1;fill-rule:nonzero;stroke:none"
             id="path50" /></g></g></g></g></svg>
